<svg xmlns="http://www.w3.org/2000/svg" width="64" height="64" viewBox="0 0 64 64">
        <!-- Main eye body -->
        <circle cx="32" cy="32" r="24" fill="#884488" stroke="#000" stroke-width="2"/>
        <!-- Central eye -->
        <circle cx="32" cy="28" r="12" fill="#fff" stroke="#000" stroke-width="1"/>
        <circle cx="32" cy="28" r="6" fill="#080"/>
        <circle cx="32" cy="28" r="3" fill="#000"/>
        <!-- Eye stalks -->
        <line x1="20" y1="12" x2="14" y2="4" stroke="#884488" stroke-width="4"/>
        <circle cx="14" cy="4" r="4" fill="#fff" stroke="#000" stroke-width="1"/>
        <circle cx="14" cy="4" r="2" fill="#f00"/>

        <line x1="44" y1="12" x2="50" y2="4" stroke="#884488" stroke-width="4"/>
        <circle cx="50" cy="4" r="4" fill="#fff" stroke="#000" stroke-width="1"/>
        <circle cx="50" cy="4" r="2" fill="#f00"/>

        <line x1="12" y1="24" x2="4" y2="20" stroke="#884488" stroke-width="4"/>
        <circle cx="4" cy="20" r="4" fill="#fff" stroke="#000" stroke-width="1"/>
        <circle cx="4" cy="20" r="2" fill="#f00"/>

        <line x1="52" y1="24" x2="60" y2="20" stroke="#884488" stroke-width="4"/>
        <circle cx="60" cy="20" r="4" fill="#fff" stroke="#000" stroke-width="1"/>
        <circle cx="60" cy="20" r="2" fill="#f00"/>
        <!-- Mouth -->
        <path d="M 20 44 Q 32 56 44 44" fill="#400" stroke="#000" stroke-width="1"/>
        <polygon points="24,44 26,50 28,44" fill="#fff"/>
        <polygon points="32,44 34,52 36,44" fill="#fff"/>
        <polygon points="38,44 40,50 42,44" fill="#fff"/>
      </svg>