<svg xmlns="http://www.w3.org/2000/svg" width="64" height="64" viewBox="0 0 64 64">
  <!-- Body - small red demon -->
  <ellipse cx="32" cy="42" rx="14" ry="16" fill="#cc4444" stroke="#000" stroke-width="2"/>
  <!-- Horns -->
  <polygon points="18,28 22,16 26,28" fill="#882222" stroke="#000" stroke-width="1"/>
  <polygon points="46,28 42,16 38,28" fill="#882222" stroke="#000" stroke-width="1"/>
  <!-- Wings -->
  <path d="M 12 38 Q 6 28 14 22 Q 16 32 18 36" fill="#882222" stroke="#000" stroke-width="1"/>
  <path d="M 52 38 Q 58 28 50 22 Q 48 32 46 36" fill="#882222" stroke="#000" stroke-width="1"/>
  <!-- Eyes -->
  <ellipse cx="26" cy="36" rx="5" ry="4" fill="#ff0" stroke="#000" stroke-width="1"/>
  <ellipse cx="38" cy="36" rx="5" ry="4" fill="#ff0" stroke="#000" stroke-width="1"/>
  <circle cx="26" cy="36" r="2" fill="#000"/>
  <circle cx="38" cy="36" r="2" fill="#000"/>
  <!-- Nose -->
  <circle cx="32" cy="44" r="2" fill="#aa2222"/>
  <!-- Mouth - fanged grin -->
  <path d="M 24 50 L 32 52 L 40 50" fill="none" stroke="#000" stroke-width="2"/>
  <polygon points="26,50 28,54 30,50" fill="#fff" stroke="#000" stroke-width="0.5"/>
  <polygon points="34,50 36,54 38,50" fill="#fff" stroke="#000" stroke-width="0.5"/>
  <!-- Tail -->
  <path d="M 32 58 Q 42 62 46 56 Q 50 52 48 48" fill="none" stroke="#cc4444" stroke-width="4"/>
  <polygon points="46,46 52,48 48,52" fill="#cc4444" stroke="#000" stroke-width="1"/>
</svg>
